# xmcd CD database file
#
# Track frame offsets:
#	150
#	51377
#	101637
#	143460
#
# Disc length: 2615 seconds
#
# Revision: 0
# Processed by: cddbd v1.5.2PL0 Copyright (c) Steve Scherf et al.
# Submitted via: CDex 1.51
#
DISCID=300a3504
DTITLE=Horace  Silver - Doin' The Thing
DYEAR=1961
DGENRE=Jazz
TTITLE0=Filthy McNasty
TTITLE1=Doin' The Thing
TTITLE2=Kiss Me Right
TTITLE3=The Gringo - The Theme: Cool Eyes
EXTD=YEAR: 1961
EXTT0=
EXTT1=
EXTT2=
EXTT3=
PLAYORDER=
